<svg width="30" height="29" viewBox="0 0 30 29" fill="none" xmlns="http://www.w3.org/2000/svg">
<path d="M1.74898 26.8325L7.20746 21.3741H24.556C25.3625 21.3741 26.136 21.0537 26.7063 20.4834C27.2766 19.9131 27.5969 19.1396 27.5969 18.3331V4.64892C27.5969 3.84241 27.2766 3.06894 26.7063 2.49865C26.136 1.92837 25.3625 1.60798 24.556 1.60798H4.78992C3.98341 1.60798 3.20994 1.92837 2.63965 2.49865C2.06937 3.06894 1.74898 3.84241 1.74898 4.64892V26.8325ZM1.74898 28.9764H0.228516V4.64892C0.228516 3.43916 0.709091 2.27895 1.56452 1.42352C2.41995 0.568092 3.58016 0.0875168 4.78992 0.0875168H24.556C25.7658 0.0875168 26.926 0.568092 27.7814 1.42352C28.6368 2.27895 29.1174 3.43916 29.1174 4.64892V18.3331C29.1174 19.5429 28.6368 20.7031 27.7814 21.5585C26.926 22.414 25.7658 22.8945 24.556 22.8945H7.83085L1.74898 28.9764ZM6.31039 6.16939H23.0355V7.68986H6.31039V6.16939ZM6.31039 10.7308H23.0355V12.2513H6.31039V10.7308ZM6.31039 15.2922H18.4741V16.8127H6.31039V15.2922Z" fill="#144270"/>
</svg>
