<svg width="17" height="17" viewBox="0 0 17 17" fill="none" xmlns="http://www.w3.org/2000/svg">
<path fill-rule="evenodd" clip-rule="evenodd" d="M8.82031 16.2986C13.3076 16.2986 16.9453 12.661 16.9453 8.17361C16.9453 3.6863 13.3076 0.0486145 8.82031 0.0486145C4.333 0.0486145 0.695312 3.6863 0.695312 8.17361C0.695312 12.661 4.333 16.2986 8.82031 16.2986ZM12.5853 6.86052C12.9819 6.46389 12.9819 5.82084 12.5853 5.42421C12.1887 5.02758 11.5456 5.02758 11.149 5.42421L7.80469 8.76857L6.4916 7.45546C6.09496 7.05883 5.45191 7.05883 5.05528 7.45546C4.65866 7.85209 4.65866 8.49516 5.05528 8.89176L7.08653 10.923C7.48316 11.3196 8.12621 11.3196 8.52285 10.923L12.5853 6.86052Z" fill="#49DD7F"/>
</svg>
