<svg width="72" height="72" viewBox="0 0 72 72" fill="none" xmlns="http://www.w3.org/2000/svg">
<path d="M62.6218 40.338C63.5818 43.588 61.5128 46.321 58.1868 45.73C58.6298 48.979 55.4518 51.86 51.6078 50.013C53.0858 53.779 49.6108 55.921 46.8768 54.296C48.2798 55.995 46.0638 61.756 37.4898 56.29L35.8468 55.387L16.5098 44.752L15.0508 43.95C15.0508 43.95 7.91777 38.128 6.51377 35.691C2.12177 28.096 7.46277 15.901 16.9538 13.871L24.8968 12.447L30.1358 20.394L43.2088 26.398L55.9998 33.58L59.6848 37.348L62.6218 40.338Z" fill="#A57939"/>
<path d="M62.622 40.338C69.343 35.753 67.663 21.308 62.523 14.978C53.236 13.519 51.523 12.616 41.543 11.035L28.013 10.417C27.0439 10.1626 26.0146 10.2819 25.1294 10.7511C24.2441 11.2203 23.5676 12.0052 23.234 12.95C22.4296 15.8964 21.2183 18.7162 19.635 21.328C19.2844 22.1856 19.2841 23.1465 19.6341 24.0043C19.9841 24.8621 20.6566 25.5485 21.507 25.916C23.415 26.392 24.287 25.53 25.967 24.23C27.4066 22.8559 28.6833 21.3208 29.772 19.655L43.412 25.859L56.132 33.023C58.646 34.72 61.144 38.866 62.642 40.343M31.51 54.15C31.9444 53.486 32.6224 53.0195 33.3977 52.8511C34.173 52.6827 34.9834 52.826 35.654 53.25C37.059 54.063 38.093 55.612 37.132 57.313L35.358 60.414C34.884 61.0521 34.1936 61.4957 33.4162 61.6617C32.6388 61.8278 31.8275 61.7049 31.1341 61.3162C30.4407 60.9275 29.9126 60.2994 29.6487 59.5496C29.3847 58.7997 29.403 57.9794 29.7 57.242L31.51 54.148V54.15ZM25.84 50.98C26.2744 50.316 26.9524 49.8495 27.7277 49.6811C28.503 49.5127 29.3134 49.656 29.984 50.08C31.389 50.893 32.423 52.442 31.462 54.143L29.688 57.244C29.2139 57.8816 28.5237 58.3248 27.7466 58.4907C26.9695 58.6565 26.1585 58.5337 25.4654 58.1452C24.7722 57.7567 24.2442 57.1291 23.98 56.3797C23.7159 55.6303 23.7337 54.8103 24.03 54.073L25.84 50.979V50.98Z" fill="#6A462F"/>
<path d="M20.18 47.82C20.6143 47.156 21.2923 46.6895 22.0677 46.5211C22.843 46.3527 23.6534 46.496 24.324 46.92C25.729 47.733 26.763 49.282 25.802 50.983L24.028 54.084C23.5538 54.7216 22.8637 55.1648 22.0866 55.3307C21.3094 55.4965 20.4985 55.3737 19.8053 54.9852C19.1121 54.5967 18.5841 53.9691 18.32 53.2197C18.0558 52.4702 18.0736 51.6503 18.37 50.913L20.18 47.819V47.82Z" fill="#6A462F"/>
<path d="M14.5301 44.65C14.9644 43.986 15.6424 43.5195 16.4178 43.3511C17.1931 43.1827 18.0035 43.326 18.6741 43.75C20.0791 44.563 21.1131 46.112 20.1521 47.813L18.3781 50.914C17.9039 51.5516 17.2138 51.9948 16.4367 52.1607C15.6595 52.3265 14.8486 52.2037 14.1554 51.8152C13.4622 51.4268 12.9342 50.7991 12.6701 50.0497C12.4059 49.3003 12.4237 48.4803 12.7201 47.743L14.5301 44.649V44.65Z" fill="#6A462F"/>
<path d="M15.0498 43.95C15.0498 43.95 7.91679 38.128 6.51279 35.691C2.12079 28.096 7.46179 15.901 16.9528 13.871M38.7098 42.99L51.5998 50.011M33.8698 47.79L46.8698 54.288M58.1798 45.72L53.0798 41.362L44.8008 37.027M29.7718 19.654L43.4118 25.858L56.1318 33.022C58.6458 34.72 61.1438 38.866 62.6418 40.343" stroke="black" stroke-width="2" stroke-linecap="round" stroke-linejoin="round"/>
<path d="M37.4898 56.29C46.0638 61.756 48.2798 55.995 46.8768 54.296C49.6108 55.921 53.0858 53.779 51.6078 50.013C55.4518 51.86 58.6298 48.979 58.1868 45.73C61.5128 46.321 63.5818 43.588 62.6218 40.338C69.3428 35.753 67.6628 21.308 62.5228 14.978C53.2358 13.519 51.5228 12.616 41.5428 11.035L28.0128 10.416C27.0437 10.1617 26.0144 10.2809 25.1291 10.7501C24.2438 11.2193 23.5673 12.0042 23.2338 12.949C22.4294 15.8954 21.218 18.7152 19.6348 21.327C19.2842 22.1846 19.2838 23.1455 19.6338 24.0033C19.9839 24.8611 20.6563 25.5475 21.5068 25.915C23.4148 26.392 24.2868 25.529 25.9668 24.229C27.4063 22.8549 28.6831 21.3198 29.7718 19.654" stroke="black" stroke-width="2" stroke-linecap="round" stroke-linejoin="round"/>
<path d="M31.5097 54.15C31.944 53.4861 32.622 53.0195 33.3973 52.8511C34.1726 52.6827 34.9831 52.826 35.6537 53.25C37.0587 54.063 38.0927 55.612 37.1317 57.313L35.3577 60.414C34.8836 61.0521 34.1933 61.4957 33.4159 61.6618C32.6384 61.8278 31.8272 61.705 31.1337 61.3162C30.4403 60.9275 29.9123 60.2994 29.6483 59.5496C29.3844 58.7997 29.4026 57.9794 29.6997 57.242L31.5097 54.148V54.15ZM25.8397 50.98C26.274 50.316 26.952 49.8495 27.7273 49.6811C28.5026 49.5127 29.3131 49.656 29.9837 50.08C31.3887 50.893 32.4227 52.442 31.4617 54.143L29.6877 57.244C29.2135 57.8817 28.5234 58.3248 27.7462 58.4907C26.9691 58.6565 26.1582 58.5338 25.465 58.1453C24.7718 57.7568 24.2438 57.1292 23.9797 56.3797C23.7155 55.6303 23.7333 54.8103 24.0297 54.073L25.8397 50.979V50.98Z" stroke="black" stroke-width="2" stroke-linecap="round" stroke-linejoin="round"/>
<path d="M20.1798 47.82C20.6141 47.156 21.2921 46.6895 22.0674 46.5211C22.8427 46.3527 23.6532 46.496 24.3238 46.92C25.7288 47.733 26.7628 49.282 25.8018 50.983L24.0278 54.084C23.5536 54.7217 22.8635 55.1648 22.0863 55.3307C21.3092 55.4965 20.4983 55.3738 19.8051 54.9853C19.1119 54.5968 18.5839 53.9692 18.3197 53.2197C18.0556 52.4703 18.0734 51.6503 18.3698 50.913L20.1798 47.819V47.82Z" stroke="black" stroke-width="2" stroke-linecap="round" stroke-linejoin="round"/>
<path d="M14.5299 44.65C14.9642 43.9861 15.6422 43.5195 16.4175 43.3511C17.1928 43.1828 18.0033 43.326 18.6739 43.75C20.0789 44.563 21.1129 46.112 20.1519 47.813L18.3779 50.914C17.9037 51.5517 17.2136 51.9948 16.4364 52.1607C15.6593 52.3266 14.8484 52.2038 14.1552 51.8153C13.462 51.4268 12.934 50.7992 12.6698 50.0497C12.4057 49.3003 12.4235 48.4803 12.7199 47.743L14.5299 44.649V44.65Z" stroke="black" stroke-width="2" stroke-linecap="round" stroke-linejoin="round"/>
</svg>
