<svg width="91" height="90" viewBox="0 0 91 90" fill="none" xmlns="http://www.w3.org/2000/svg">
<circle opacity="0.5" cx="45.5" cy="45" r="45" fill="#B9D1F0"/>
<circle cx="45.5" cy="45" r="35" fill="#B9D1F0"/>
<path d="M42.6773 43.3521L59.0294 27L61.9752 29.9458L59.0294 32.8937L64.1836 38.0479L61.2377 40.9958L56.0815 35.8396L53.1357 38.7854L57.5544 43.2042L54.6086 46.1521L50.1898 41.7312L45.6232 46.2979C47.0408 48.4521 47.6093 51.0554 47.2188 53.6044C46.8283 56.1534 45.5066 58.4672 43.5091 60.0982C41.5117 61.7292 38.9804 62.5617 36.4048 62.4347C33.8291 62.3076 31.3921 61.2301 29.5648 59.4104C27.7336 57.5861 26.6461 55.1461 26.5137 52.5646C26.3812 49.9832 27.2133 47.4447 28.8482 45.4425C30.4831 43.4404 32.8039 42.1176 35.3597 41.7312C37.9156 41.3449 40.5237 41.9226 42.6773 43.3521ZM41.3502 56.4625C41.9572 55.8884 42.4428 55.1985 42.7785 54.4336C43.1143 53.6686 43.2932 52.8441 43.3048 52.0088C43.3164 51.1735 43.1605 50.3443 42.8462 49.5703C42.5319 48.7963 42.0656 48.0932 41.4749 47.5025C40.8841 46.9118 40.181 46.4455 39.407 46.1312C38.633 45.8168 37.8038 45.6609 36.9685 45.6725C36.1332 45.6841 35.3087 45.8631 34.5437 46.1988C33.7788 46.5345 33.0889 47.0202 32.5148 47.6271C31.3763 48.8058 30.7464 50.3846 30.7606 52.0233C30.7749 53.6621 31.4322 55.2296 32.591 56.3884C33.7498 57.5472 35.3173 58.2046 36.9561 58.2188C38.5948 58.233 40.1736 57.6031 41.3523 56.4646L41.3502 56.4625Z" fill="#144270"/>
</svg>
