<svg width="72" height="72" viewBox="0 0 72 72" fill="none" xmlns="http://www.w3.org/2000/svg">
<path d="M36 27.737L41.248 43.888H58.23L44.491 53.87L49.739 70.021L36 60.039L22.261 70.021L27.509 53.87L13.77 43.888H30.752L36 27.737Z" fill="#FCEA2B"/>
<path d="M56 8.979V2.021H16V8.979L36 23.737L56 8.979Z" fill="#EA5A47"/>
<path d="M36 19.064V2.021M36 27.737L41.248 43.888H58.23L44.491 53.87L49.739 70.021L36 60.039L22.261 70.021L27.509 53.87L13.77 43.888H30.752L36 27.737ZM56 8.979V2.021H16V8.979L36 23.737L56 8.979Z" stroke="black" stroke-width="2" stroke-miterlimit="10" stroke-linecap="round" stroke-linejoin="round"/>
<path d="M36 19.064V2.021M36 27.737L41.248 43.888H58.23L44.491 53.87L49.739 70.021L36 60.039L22.261 70.021L27.509 53.87L13.77 43.888H30.752L36 27.737ZM56 8.979V2.021H16V8.979L36 23.737L56 8.979Z" stroke="black" stroke-width="2" stroke-miterlimit="10" stroke-linecap="round" stroke-linejoin="round"/>
</svg>
