<svg width="37" height="30" viewBox="0 0 37 30" fill="none" xmlns="http://www.w3.org/2000/svg">
<path d="M24.1216 0.281952L16.7365 5.02226L17.4851 5.43216L24.0555 1.21469L35.1999 7.5273L28.8076 11.6303L29.119 11.8007V12.3208L34.1258 9.10697L35.1767 9.70227L29.1189 13.5905V14.4809L34.0278 11.3299L35.1767 11.9808L29.1189 15.8691V16.7594L34.0278 13.6085L35.1767 14.2594L29.1189 18.1476V19.038L36.7164 14.1613L34.8307 13.0933L36.7163 11.8828L34.8306 10.8147L36.7162 9.60429L34.9286 8.59166L36.7394 7.42925L24.1215 0.281952H24.1216ZM26.4811 3.67993C24.8833 4.48165 22.7551 4.6173 21.2566 4.01282L18.3272 5.8931L27.9654 11.1693L30.7438 9.38601C29.6494 8.52201 29.7405 7.23285 30.9672 6.2212L26.4811 3.67993H26.4811ZM16.5629 6.48581L11.1942 9.98662L21.4937 15.9157L21.5947 15.8511C21.7846 15.7289 22.0527 15.5557 22.3726 15.3489C23.0121 14.9355 23.8584 14.3874 24.7022 13.8405C25.9176 13.0529 26.5439 12.6466 27.1263 12.2688L16.5629 6.48581ZM25.3326 6.57467C25.3326 6.57467 25.3327 6.57467 25.3328 6.57467C25.5757 6.57615 25.7984 6.62821 25.9647 6.72239C26.0615 6.7772 26.1365 6.8448 26.1856 6.92135C26.2347 6.99789 26.2568 7.08187 26.2506 7.16849C26.2445 7.25512 26.2102 7.34268 26.1498 7.42619C26.0894 7.5097 26.0041 7.58752 25.8986 7.6552C25.7932 7.72288 25.6697 7.7791 25.5353 7.82065C25.4008 7.8622 25.258 7.88827 25.1151 7.89737C24.9721 7.90647 24.8317 7.89842 24.702 7.87367C24.5722 7.84893 24.4556 7.80799 24.3589 7.75317C24.1635 7.64249 24.0607 7.48204 24.0731 7.30714C24.0855 7.13223 24.212 6.95719 24.425 6.82052C24.5459 6.74288 24.6903 6.68045 24.8475 6.63788C25.0046 6.59531 25.1704 6.5737 25.3326 6.57467ZM8.74346 10.153L0.738008 15.2914L2.52563 16.304L0.714844 17.4664L2.60052 18.5345L0.714844 19.745L2.60052 20.8131L0.714844 22.0235L13.3327 29.1708L20.9507 24.2808V23.3906L13.3989 28.238L2.25449 21.9253L3.33715 21.2304L13.3327 26.8922L20.9507 22.0023V21.1121L13.3989 25.9595L2.25449 19.6469L3.33715 18.9519L13.3327 24.6137L20.9507 19.7238V18.8337L13.3989 23.6811L2.25449 17.3684L3.26234 16.7213L13.356 22.4388L20.9507 17.5637V17.1802L20.5345 16.9406L13.4219 21.5059L2.27781 15.1933L9.47477 10.5738L8.74338 10.1528L8.74346 10.153ZM10.2974 11.0477L6.73383 13.3349C7.82827 14.1988 7.73713 15.4879 6.51039 16.4997L10.9966 19.041C12.5943 18.2392 14.7224 18.1036 16.2209 18.708L19.7119 16.4672L10.2972 11.0476L10.2974 11.0477ZM27.7518 13.4925C27.1409 13.8888 26.6021 14.2385 25.4458 14.9878C24.6691 15.4913 23.8921 15.9944 23.1149 16.4972C22.7946 16.7041 22.5259 16.8777 22.3343 17.0009C22.3275 17.0054 22.3247 17.0069 22.318 17.0113V23.5371L27.7519 19.8849L27.7518 13.4925ZM12.4868 14.8201C12.7297 14.8216 12.9524 14.8738 13.1187 14.968C13.3141 15.0787 13.4169 15.2391 13.4045 15.414C13.3921 15.5889 13.2655 15.764 13.0526 15.9007C12.8397 16.0373 12.5579 16.1244 12.2692 16.1427C11.9805 16.1611 11.7085 16.1093 11.5131 15.9986C11.3177 15.8879 11.2149 15.7275 11.2273 15.5526C11.2397 15.3777 11.3663 15.2026 11.5792 15.066C11.7001 14.9883 11.8445 14.9259 12.0017 14.8834C12.1588 14.8408 12.3247 14.8192 12.4868 14.8202V14.8201Z" fill="#144270"/>
</svg>
