<svg width="31" height="31" viewBox="0 0 31 31" fill="none" xmlns="http://www.w3.org/2000/svg">
<path d="M23.4507 26.7305V2.85137C23.4495 2.40974 23.2734 1.98656 22.9612 1.67428C22.6489 1.362 22.2257 1.18599 21.7841 1.18471H2.89518C2.45355 1.18599 2.03037 1.362 1.71809 1.67428C1.4058 1.98656 1.2298 2.40974 1.22852 2.85137V27.2958C1.23071 28.0319 1.52408 28.7371 2.04454 29.2576C2.56499 29.778 3.27026 30.0714 4.00629 30.0736H26.7841" stroke="#144270" stroke-width="1.35417" stroke-linejoin="round"/>
<path d="M26.7865 30.0736C25.9024 30.0736 25.0546 29.7225 24.4294 29.0973C23.8043 28.4722 23.4531 27.6244 23.4531 26.7403V6.74031H28.4531C28.8952 6.74031 29.3191 6.91591 29.6316 7.22847C29.9442 7.54103 30.1198 7.96495 30.1198 8.40698V26.7403C30.1198 27.6244 29.7686 28.4722 29.1435 29.0973C28.5184 29.7225 27.6705 30.0736 26.7865 30.0736Z" stroke="#144270" stroke-width="1.35417" stroke-linejoin="round"/>
<path d="M14.5627 6.74031H19.0072M14.5627 11.1848H19.0072M5.67383 15.6292H19.0072M5.67383 20.0736H19.0072M5.67383 24.5181H19.0072" stroke="#144270" stroke-width="1.35417" stroke-linecap="round" stroke-linejoin="round"/>
<path d="M10.1161 11.6187H5.67166C5.55655 11.6187 5.44615 11.573 5.36475 11.4916C5.28336 11.4102 5.23763 11.2998 5.23763 11.1847V6.74025C5.23763 6.62514 5.28336 6.51474 5.36475 6.43334C5.44615 6.35195 5.55655 6.30622 5.67166 6.30622H10.1161C10.2312 6.30622 10.3416 6.35195 10.423 6.43334C10.5044 6.51474 10.5501 6.62513 10.5501 6.74025V11.1847C10.5501 11.2998 10.5044 11.4102 10.423 11.4916L10.9018 11.9704L10.423 11.4916C10.3416 11.573 10.2312 11.6187 10.1161 11.6187Z" fill="#144270" stroke="#144270" stroke-width="1.35417"/>
</svg>
