<svg width="72" height="72" viewBox="0 0 72 72" fill="none" xmlns="http://www.w3.org/2000/svg">
<path d="M38.1 8.4C36.9 7.2 35.1 7.2 33.9 8.4L15.9 26.4C14.7 27.6 14.7 29.4 15.9 30.6C16.5 31.2 17.25 31.5 18 31.5C18.75 31.5 19.5 31.2 20.1 30.6L38.1 12.6C39.3 11.4 39.3 9.6 38.1 8.4Z" fill="#2E7D32"/>
<path d="M56.1 26.4L38.1 8.4C36.9 7.2 35.1 7.2 33.9 8.4C32.7 9.6 32.7 11.4 33.9 12.6L51.9 30.6C52.5 31.2 53.25 31.5 54 31.5C54.75 31.5 55.5 31.2 56.1 30.6C57.3 29.4 57.3 27.6 56.1 26.4Z" fill="#1B5E20"/>
<path d="M56.1 61.5H15.9C14.4 61.5 13.2 60.45 12.9 59.1L7.5 31.5H64.5L58.95 59.1C58.65 60.45 57.45 61.5 56.1 61.5Z" fill="#388E3C"/>
<path d="M64.5 34.5H7.5C5.85 34.5 4.5 33.15 4.5 31.5V28.5C4.5 26.85 5.85 25.5 7.5 25.5H64.5C66.15 25.5 67.5 26.85 67.5 28.5V31.5C67.5 33.15 66.15 34.5 64.5 34.5Z" fill="#4CAF50"/>
<path d="M46.2 37.2L34.35 49.05L28.8 43.35L25.5 46.65L34.35 55.5L49.5 40.35L46.2 37.2Z" fill="#DCEDC8"/>
</svg>
