<svg width="55" height="68" viewBox="0 0 55 68" fill="none" xmlns="http://www.w3.org/2000/svg">
<path d="M15.1492 42.9333C14.5358 42.9333 14.1225 42.9933 13.9092 43.0533V46.98C14.1625 47.04 14.4792 47.0567 14.9158 47.0567C16.5125 47.0567 17.4958 46.25 17.4958 44.8867C17.4958 43.6667 16.6492 42.9333 15.1492 42.9333ZM26.7725 42.9733C26.1058 42.9733 25.6725 43.0333 25.4158 43.0933V51.7933C25.6725 51.8533 26.0858 51.8534 26.4592 51.8534C29.1825 51.8734 30.9558 50.3733 30.9558 47.2C30.9758 44.4333 29.3592 42.9733 26.7725 42.9733Z" fill="#144270"/>
<path d="M34.2592 0.666748H7.59257C5.82446 0.666748 4.12877 1.36913 2.87852 2.61937C1.62828 3.86961 0.925903 5.5653 0.925903 7.33342V60.6668C0.925903 62.4349 1.62828 64.1306 2.87852 65.3808C4.12877 66.631 5.82446 67.3334 7.59257 67.3334H47.5926C49.3607 67.3334 51.0564 66.631 52.3066 65.3808C53.5569 64.1306 54.2592 62.4349 54.2592 60.6668V20.6667L34.2592 0.666748ZM19.2526 47.9668C18.2226 48.9334 16.7026 49.3668 14.9326 49.3668C14.5894 49.3705 14.2463 49.3504 13.9059 49.3067V54.0601H10.9259V40.9401C12.2708 40.7395 13.6296 40.6481 14.9892 40.6667C16.8459 40.6667 18.1659 41.0201 19.0559 41.7301C19.9026 42.4034 20.4759 43.5067 20.4759 44.8067C20.4726 46.1134 20.0392 47.2168 19.2526 47.9668ZM31.9426 52.4834C30.5426 53.6468 28.4126 54.2001 25.8092 54.2001C24.2492 54.2001 23.1459 54.1001 22.3959 54.0001V40.9434C23.7412 40.7471 25.0997 40.6546 26.4592 40.6667C28.9826 40.6667 30.6226 41.1201 31.9026 42.0867C33.2859 43.1134 34.1526 44.7501 34.1526 47.1001C34.1526 49.6434 33.2226 51.4001 31.9426 52.4834ZM44.2592 43.2334H39.1526V46.2701H43.9259V48.7168H39.1526V54.0634H36.1326V40.7667H44.2592V43.2334ZM34.2592 24.0001H30.9259V7.33342L47.5926 24.0001H34.2592Z" fill="#144270"/>
</svg>
