<svg width="24" height="30" viewBox="0 0 24 30" fill="none" xmlns="http://www.w3.org/2000/svg">
<path d="M19.873 15.4014C20.7924 15.4014 21.6741 15.7666 22.3243 16.4168C22.9744 17.0669 23.3396 17.9487 23.3396 18.8681H11.7841V21.1792H23.2472C23.1247 21.965 22.8751 22.7461 22.5076 23.4903H11.7841V25.8014H20.8644C18.8861 27.8421 15.7846 29.2681 11.7841 29.2681C4.52718 29.2681 0.228516 24.5788 0.228516 20.0236V18.8681C0.228516 17.9487 0.593753 17.0669 1.24388 16.4168C1.894 15.7666 2.77576 15.4014 3.69518 15.4014H19.873ZM18.0356 5.57918C18.1757 6.34319 18.1757 7.12629 18.0356 7.89029H11.7841V10.2014H17.1112C16.3639 11.3497 15.2655 12.2258 13.9797 12.6991C12.694 13.1723 11.2898 13.2175 9.97629 12.8277C8.66283 12.4379 7.51048 11.6342 6.691 10.5362C5.87151 9.43821 5.42878 8.10481 5.42878 6.73474C5.42878 5.36466 5.87151 4.03127 6.691 2.93329C7.51048 1.83531 8.66283 1.03154 9.97629 0.641783C11.2898 0.252022 12.694 0.297138 13.9797 0.770407C15.2655 1.24368 16.3639 2.11976 17.1112 3.26807H11.7841V5.57918H18.0356Z" fill="#144270"/>
</svg>
