<svg width="19" height="10" viewBox="0 0 19 10" fill="none" xmlns="http://www.w3.org/2000/svg">
<path d="M5.6229 9.40075C4.2761 9.40075 3.13132 8.96881 2.18856 8.10493C1.24579 7.24104 0.774414 6.19204 0.774414 4.95792C0.774414 3.7238 1.24579 2.6748 2.18856 1.81092C3.13132 0.947033 4.2761 0.515091 5.6229 0.515091C6.51179 0.515091 7.3266 0.718721 8.06734 1.12598C8.80808 1.53324 9.39394 2.07008 9.82492 2.73651H18.5522V7.17934H16.936V9.40075H12.0875V7.17934H9.82492C9.39394 7.84576 8.80808 8.3826 8.06734 8.78986C7.3266 9.19712 6.51179 9.40075 5.6229 9.40075ZM5.6229 7.91981C6.51179 7.91981 7.22559 7.67002 7.76431 7.17045C8.30303 6.67039 8.62627 6.1797 8.73401 5.69839H13.7037V7.91981H15.3199V5.69839H16.936V4.21745H8.73401C8.62627 3.73614 8.30303 3.24546 7.76431 2.74539C7.22559 2.24582 6.51179 1.99603 5.6229 1.99603C4.73401 1.99603 3.97307 2.28605 3.34007 2.86609C2.70707 3.44613 2.39058 4.1434 2.39058 4.95792C2.39058 5.77244 2.70707 6.46972 3.34007 7.04975C3.97307 7.62979 4.73401 7.91981 5.6229 7.91981ZM5.6229 6.43887C6.06734 6.43887 6.44768 6.29373 6.76391 6.00347C7.08068 5.7137 7.23906 5.36518 7.23906 4.95792C7.23906 4.55066 7.08068 4.2019 6.76391 3.91164C6.44768 3.62186 6.06734 3.47698 5.6229 3.47698C5.17845 3.47698 4.79812 3.62186 4.48189 3.91164C4.16512 4.2019 4.00674 4.55066 4.00674 4.95792C4.00674 5.36518 4.16512 5.7137 4.48189 6.00347C4.79812 6.29373 5.17845 6.43887 5.6229 6.43887Z" fill="#144270"/>
</svg>
